# xmcd
#
# Track frame offsets: 
#        150
#        1659
#        18013
#        32869
#        47845
#        48604
#        63228
#        81334
#        106425
#        106743
#        123880
#        140963
#        158135
#        175681
#        197350
#        197905
#
# Disc length: 3158 seconds
#
# Revision: 0
# Processed by: cddbd v1.5.2PL0 Copyright (c) Steve Scherf et al.
# Submitted via: ExactAudioCopy v0.99pb4
#
DISCID=cd0c5410
DTITLE=Madison Mckoy - 10th Child
DYEAR=2005
DGENRE=R&B
TTITLE0=Birth25stage
TTITLE1=Summer On
TTITLE2=Just Wanna Say
TTITLE3=Save It For A Rainy Day
TTITLE4=Hello....
TTITLE5=The Diss
TTITLE6=Chill Dance
TTITLE7=Slip Away
TTITLE8=Wake Up!
TTITLE9=Little Thang
TTITLE10=Home
TTITLE11=Mary Lou
TTITLE12=My T.V. Screen
TTITLE13=Chill Dance (Deep Freeze Remix)
TTITLE14=Mama
TTITLE15=Gone
EXTD=
EXTT0=
EXTT1=
EXTT2=
EXTT3=
EXTT4=
EXTT5=
EXTT6=
EXTT7=
EXTT8=
EXTT9=
EXTT10=
EXTT11=
EXTT12=
EXTT13=
EXTT14=
EXTT15=
PLAYORDER=
